<?xml version='1.0' encoding='UTF-8'?>
<svg xmlns="http://www.w3.org/2000/svg" xmlns:xlink="http://www.w3.org/1999/xlink" xmlns:inkscape="http://www.inkscape.org/namespaces/inkscape" version="1.1" width="230.097" height="301.957" viewBox="356.775 124.916 230.097 301.957">
<defs>
<clipPath id="clip_1">
<path transform="matrix(1,0,0,-1,0,547.087)" d="M0 547.087H2332.914V0H0Z"/>
</clipPath>
<clipPath id="clip_2">
<path transform="matrix(1,0,0,-1,0,547.087)" d="M-276.247-789.297H2733.08V868.621H-276.247Z"/>
</clipPath>
<clipPath id="clip_3">
<path transform="matrix(1,0,0,-1,0,547.087)" d="M0 547.087H2332.914V0H0Z" clip-rule="evenodd"/>
</clipPath>
<clipPath id="clip_4">
<path transform="matrix(1,0,0,-1,0,547.087)" d="M-3055.95-1061.1H2045.48V772.933H-3055.95Z" clip-rule="evenodd"/>
</clipPath>
<clipPath id="clip_5">
<path transform="matrix(1,0,0,-1,0,547.087)" d="M-2953.416 538.277H-495.27296V-102.19702H-2953.416Z" clip-rule="evenodd"/>
</clipPath>
<clipPath id="clip_6">
<path transform="matrix(1,0,0,-1,0,547.087)" d="M-38.361-60.2964H2387.86V602.125H-38.361Z" clip-rule="evenodd"/>
</clipPath>
<clipPath id="clip_7">
<path transform="matrix(1,0,0,-1,0,547.087)" d="M-38.361 602.125H2387.858V-60.296998H-38.361Z" clip-rule="evenodd"/>
</clipPath>
<g id="pattern_tile_8">
<path transform="matrix(7.17087,0,0,-7.17087,86.4368,579.98159)" d="M12.965 .188H0V-.188H12.965Z" fill="#e0e0df"/>
<path transform="matrix(7.17087,0,0,-7.17087,86.4368,579.98159)" d="M12.965 5.857H0V5.481H12.965Z" fill="#e0e0df"/>
<path transform="matrix(7.17087,0,0,-7.17087,86.4368,579.98159)" d="M12.965 11.527H0V11.151H12.965Z" fill="#e0e0df"/>
</g>
<pattern id="pattern_8" patternUnits="userSpaceOnUse" patternContentUnits="userSpaceOnUse" x="0" y="0" width="12.9648" height="11.3386">
<g transform="matrix(.1394531,0,0,-.1394531,-12.053879,80.880229)">
<use x="0" y="0" xlink:href="#pattern_tile_8"/>
</g>
</pattern>
<clipPath id="clip_9">
<path transform="matrix(1,0,0,-1,0,547.087)" d="M0 547.087H2332.914V0H0Z"/>
</clipPath>
<clipPath id="clip_10">
<path transform="matrix(1,0,0,-1,0,547.087)" d="M-3055.95-1061.1H2045.48V772.933H-3055.95Z"/>
</clipPath>
<clipPath id="clip_11">
<path transform="matrix(1,0,0,-1,0,547.087)" d="M-2953.416 532.292H-509.239V-84.23901H-2953.416Z" clip-rule="evenodd"/>
</clipPath>
<clipPath id="clip_12">
<path transform="matrix(1,0,0,-1,0,547.087)" d="M-276.247-789.297H2733.08V868.621H-276.247Z" clip-rule="evenodd"/>
</clipPath>
<clipPath id="clip_13">
<path transform="matrix(1,0,0,-1,0,547.087)" d="M-52.328 618.087H2391.849L2380.875-53.313H-63.302Z" clip-rule="evenodd"/>
</clipPath>
</defs>
<g>
<g clip-path="url(#clip_1)">
<path transform="matrix(1,0,0,-1,418.5673,131.40628)" d="M0 0 47.886-41.235 54.103-199.668 16.877-200.608ZM-38.068-255.107 126.156-250.961 113.507-192.874 160.063-236.326 162.497-285.512-1.727-289.659Z" fill="#ffffff"/>
<path transform="matrix(1,0,0,-1,419.4869,130.72708)" d="M0 0 38.122-34.506 42.183-195.347 4.957-196.286ZM-49.988-250.786 114.236-246.64 112.896-193.561 149.237-228.112 150.577-281.191-13.648-285.338Z" fill="#de6b4a"/>
<path transform="matrix(1,0,0,-1,560.5709,410.01838)" d="M0 0-.121 4.809-4.93 4.687-4.809-.121ZM-6.574 6.25-6.695 11.06-11.505 10.939-11.383 6.129ZM-13.33 12.674-13.452 17.483-18.261 17.361-18.14 12.553ZM-13.002-.328-13.124 4.481-17.933 4.359-17.812-.449ZM-19.905 18.924-20.026 23.733-24.836 23.612-24.715 18.803ZM-19.577 5.921-19.698 10.731-24.507 10.609-24.386 5.8ZM-25.827-.652-25.948 4.157-30.758 4.036-30.637-.773ZM-26.662 25.349-26.783 30.158-31.593 30.037-31.471 25.228ZM-26.333 12.346-26.455 17.155-31.264 17.033-31.142 12.225ZM-32.402 5.598-32.523 10.407-37.332 10.286-37.21 5.476ZM-32.908 18.596-33.029 23.405-37.838 23.284-37.717 18.475ZM-39.158 12.022-39.28 16.83-44.088 16.709-43.967 11.9ZM-39.665 25.021-39.786 29.83-44.595 29.709-44.474 24.9ZM-39.008-.984-39.129 3.825-43.939 3.703-43.817-1.106ZM-45.733 18.273-45.854 23.082-50.663 22.96-50.542 18.151ZM-45.582 5.265-45.704 10.075-50.512 9.953-50.391 5.144ZM-52.376-.966-52.479 3.131-56.576 3.028-56.472-1.07ZM-52.489 24.697-52.611 29.505-57.42 29.384-57.298 24.575ZM-52.339 11.689-52.46 16.498-57.269 16.376-57.148 11.567ZM-58.949 5.284-59.058 9.559-63.332 9.451-63.224 5.177ZM-58.913 17.94-59.035 22.749-63.844 22.627-63.722 17.819ZM-65.561-1.12-65.651 2.442-69.213 2.352-69.123-1.21ZM-65.707 11.708-65.81 15.805-69.907 15.702-69.803 11.605ZM-65.67 24.364-65.791 29.173-70.6 29.051-70.479 24.243ZM-72.318 5.303-72.408 8.866-75.97 8.776-75.88 5.213ZM-72.281 17.958-72.389 22.234-76.664 22.126-76.555 17.85ZM-78.928-1.102-79.001 1.749-81.85 1.676-81.779-1.174ZM-78.891 11.553-78.981 15.116-82.544 15.026-82.454 11.463ZM-79.037 24.382-79.141 28.479-83.237 28.376-83.135 24.28ZM-85.686 5.322-85.758 8.172-88.608 8.099-88.535 5.25ZM-85.649 17.978-85.739 21.54-89.301 21.45-89.211 17.888ZM-92.297-1.082-92.35 1.055-94.667 .996-94.613-1.141ZM-92.26 11.572-92.332 14.422-95.181 14.35-95.11 11.501ZM-92.227 24.405-92.312 27.79-95.875 27.7-95.789 24.316ZM-102.288 119.327-100.507 119.373-100.462 117.592-102.243 117.546ZM-102.973 132.322-100.479 132.385-100.416 129.892-102.91 129.828ZM-103.658 145.315-100.451 145.396-100.37 142.189-103.576 142.109ZM-104.342 158.309-100.602 158.403-100.503 154.485-104.243 154.39ZM-105.031 171.481-100.935 171.584-100.817 166.953-104.914 166.85ZM-105.537 184.479-101.263 184.586-101.127 179.243-105.402 179.136ZM-106.035 197.12-101.582 197.233-101.433 191.355-105.886 191.243ZM-99.053 5.341-99.107 7.478-101.245 7.425-101.191 5.287ZM-99.016 17.996-99.089 20.847-101.938 20.774-101.867 17.924ZM-108.679 125.405-106.898 125.449-106.854 123.668-108.635 123.624ZM-109.364 138.398-106.871 138.462-106.808 135.968-109.301 135.905ZM-110.053 151.57-106.847 151.651-106.766 148.445-109.972 148.364ZM-110.738 164.563-106.82 164.662-106.721 160.744-110.638 160.645ZM-108.442 243.044-108.55 247.319-113.003 247.206-112.895 242.932ZM-111.422 177.558-106.791 177.674-106.674 173.043-111.306 172.926ZM-107.753 229.873-107.883 235.037-113.049 234.907-112.918 229.742ZM-112.107 190.55-106.942 190.681-106.811 185.517-111.977 185.386ZM-112.609 203.371-106.731 203.519-106.583 197.641-112.46 197.492ZM-105.66-1.242-105.705 .54-107.486 .494-107.441-1.288ZM-107.064 216.699-107.212 222.578-113.269 222.425-113.12 216.547ZM-105.628 11.591-105.682 13.729-107.998 13.67-107.943 11.532ZM-105.591 24.247-105.662 27.097-108.513 27.026-108.44 24.175ZM-115.254 131.655-113.473 131.699-113.427 129.918-115.208 129.874ZM-115.939 144.649-113.445 144.712-113.382 142.218-115.876 142.155ZM-116.623 157.643-113.417 157.723-113.336 154.517-116.542 154.436ZM-117.312 170.814-113.393 170.913-113.294 166.995-117.213 166.896ZM-115.016 249.294-115.124 253.569-119.577 253.457-119.469 249.182ZM-117.997 183.808-113.366 183.924-113.248 179.293-117.879 179.176ZM-114.327 236.122-114.458 241.288-119.623 241.157-119.492 235.991ZM-118.681 196.801-113.338 196.936-113.203 191.593-118.547 191.458ZM-119.183 209.622-113.306 209.77-113.157 203.892-119.035 203.744ZM-113.638 222.951-113.787 228.829-119.843 228.676-119.694 222.798ZM-112.235 5.008-112.279 6.789-114.06 6.745-114.016 4.963ZM-112.384 18.016-112.438 20.153-114.576 20.099-114.522 17.962ZM-121.824 137.727-120.043 137.772-119.997 135.991-121.778 135.946ZM-122.512 150.9-120.019 150.962-119.956 148.468-122.449 148.406ZM-123.197 163.893-119.991 163.973-119.91 160.767-123.117 160.687ZM-123.882 176.887-119.963 176.986-119.864 173.067-123.783 172.968ZM-121.59 255.544-121.698 259.82-126.151 259.707-126.043 255.431ZM-124.388 189.884-119.935 189.997-119.823 185.544-124.276 185.431ZM-120.901 242.372-121.031 247.538-126.197 247.408-126.067 242.242ZM-125.077 203.056-119.912 203.186-119.777 197.843-124.943 197.713ZM-125.757 215.872-119.879 216.02-119.731 210.142-125.609 209.994ZM-120.212 229.201-120.36 235.079-126.417 234.926-126.269 229.048ZM-118.991 11.433-119.036 13.214-120.817 13.168-120.772 11.387ZM-118.959 24.266-119.013 26.403-121.328 26.344-121.274 24.208ZM-128.219 143.981-126.438 144.027-126.394 142.246-128.175 142.2ZM-128.904 156.976-126.41 157.039-126.347 154.546-128.841 154.483ZM-129.594 170.148-126.387 170.228-126.306 167.022-129.512 166.941ZM-130.277 183.14-126.359 183.24-126.26 179.322-130.179 179.223ZM-130.962 196.135-126.331 196.252-126.214 191.621-130.845 191.504ZM-128.165 261.795-128.272 266.07-132.903 265.953-132.795 261.678ZM-131.647 209.128-126.303 209.263-126.173 204.098-131.516 203.964ZM-127.475 248.623-127.606 253.789-132.95 253.654-132.819 248.488ZM-132.332 222.122-126.454 222.27-126.306 216.392-132.184 216.244ZM-126.787 235.451-126.935 241.329-132.99 241.176-132.842 235.298ZM-125.565 17.683-125.611 19.464-127.392 19.419-127.346 17.638ZM-134.794 150.233-133.013 150.277-132.968 148.496-134.749 148.452ZM-135.479 163.226-132.985 163.289-132.922 160.796-135.416 160.733ZM-136.163 176.219-132.957 176.301-132.876 173.095-136.082 173.013ZM-136.852 189.392-132.933 189.49-132.834 185.571-136.753 185.473ZM-134.739 268.045-134.847 272.32-139.3 272.208-139.192 267.933ZM-137.537 202.385-132.905 202.502-132.789 197.871-137.42 197.754ZM-134.05 254.873-134.18 260.039-139.345 259.908-139.215 254.743ZM-138.221 215.378-132.878 215.514-132.742 210.171-138.086 210.035ZM-138.906 228.372-133.027 228.522-132.879 222.643-138.757 222.494ZM-132.322 24.106-132.367 25.887-134.148 25.843-134.103 24.062ZM-106.719 210.114-113.132 209.953-113.293 216.365-119.705 216.203-119.868 222.616-126.28 222.453-126.442 228.865-132.854 228.703-133.016 235.115-139.071 234.962-139.238 241.553-133.36 241.702-133.509 247.58-140.099 247.413-140.905 279.296-102.783 244.79-102.688 241.05-106.429 240.955-106.321 236.681-102.581 236.775-102.378 228.76-106.475 228.657-106.344 223.492-102.248 223.595-102.064 216.291-106.694 216.175-106.546 210.296-101.914 210.413-101.748 203.823-106.557 203.702ZM-190.893 28.51-26.669 32.656 9.672-1.895-154.552-6.042Z" fill="#cdb76c"/>
<path transform="matrix(1,0,0,-1,362.5815,132.17588)" d="M0 0 56.285 1.421 61.241-194.866 169.181-192.14 170.521-245.219 6.296-249.366Z" fill="#8cc6c4"/>
</g>
</g>
</svg>