<?xml version='1.0' encoding='UTF-8'?>
<svg xmlns="http://www.w3.org/2000/svg" xmlns:xlink="http://www.w3.org/1999/xlink" xmlns:inkscape="http://www.inkscape.org/namespaces/inkscape" version="1.1" width="489.632" height="476.533" viewBox="1597.014 291.255 489.632 476.533">
<defs>
<clipPath id="clip_1">
<path transform="matrix(1,0,0,-1,0,992.126)" d="M1.379 0H5244.0949V992.005H1.379Z"/>
</clipPath>
<clipPath id="clip_2">
<path transform="matrix(1,0,0,-1,0,992.126)" d="M0 992.126H5244.095V0H0Z"/>
</clipPath>
</defs>
<g clip-path="url(#clip_2)">
<path transform="matrix(1,0,0,-1,1712.0379,517.8701)" d="M0 0C-3.734 63.621 41.464 116.164 102.946 119.773 146.519 122.33 184.882 99.369 204.674 63.782 189.863 73.911 173.495 78.583 153.447 77.406 91.965 73.797 46.766 21.252 50.501-42.368 51.897-66.159 56.722-84.383 70.259-100.22 30.997-84.82 2.746-46.78 0 0M20.859-177.152-16.23-143.921C18.469-173.001 66.552-192.441 121.083-189.241 229.078-182.902 311.643-90.612 305.273 17.918 302.119 71.647 272.864 119.45 235.491 152.932L286.149 107.891C319.09 71.562 355.292 29.437 358.917-32.312 365.193-139.238 281.229-230.538 174.571-236.798 111.485-240.501 70.102-220.934 20.859-177.152" fill="#ffffff"/>
<path transform="matrix(1,0,0,-1,1698.1355,508.0688)" d="M0 0C-3.734 63.62 41.464 116.164 102.946 119.773 146.519 122.33 184.882 99.369 204.674 63.781 189.863 73.911 173.495 78.583 153.447 77.406 91.965 73.797 46.766 21.252 50.5-42.368 51.897-66.159 56.722-84.383 70.259-100.22 30.997-84.82 2.746-46.78 0 0M20.859-177.152-16.23-143.922C18.469-173.001 66.552-192.441 121.083-189.241 229.078-182.902 311.643-90.612 305.273 17.918 302.119 71.647 277.626 118.76 240.254 152.242L290.911 107.201C328.834 73.484 355.292 29.437 358.917-32.312 365.193-139.239 281.229-230.538 174.571-236.798 111.485-240.501 70.102-220.934 20.859-177.152" fill="#fec135"/>
<path transform="matrix(1,0,0,-1,2047.6026,534.7657)" d="M0 0 2.406 .141 2.547-2.264 .141-2.405ZM.8-18.193 4.008-18.005 4.196-21.212 .988-21.4ZM1.615-36.652 5.358-36.433 5.577-40.175 1.835-40.395ZM2.147-54.861 5.889-54.642 5.087-59.249 2.414-59.405ZM-9.905 8.807-7.499 8.948-7.358 6.543-9.764 6.402ZM-9.106-9.387-5.897-9.198-5.709-12.405-8.917-12.593ZM-8.29-27.846-4.548-27.626-4.328-31.369-8.071-31.588ZM-7.49-46.039-3.214-45.788-2.947-50.332-7.224-50.583ZM-6.943-64.516-1.596-64.202-1.298-69.28-6.645-69.594ZM-6.143-82.708-2.133-82.472-4.194-88.495-5.798-88.589ZM-19.543 17.631-17.137 17.772-16.996 15.365-19.402 15.224ZM-18.995-.846-15.787-.658-15.614-3.598-18.822-3.787ZM-18.196-19.039-14.453-18.82-14.233-22.562-17.976-22.782ZM-17.38-37.5-13.103-37.249-12.852-41.526-17.129-41.777ZM-16.848-55.708-11.502-55.394-11.203-60.473-16.55-60.787ZM-16.032-74.169-10.152-73.823-9.822-79.437-15.703-79.782ZM-15.232-92.362-8.817-91.985-8.472-97.866-8.708-98.416-14.856-98.777ZM-29.448 26.437-27.042 26.578-26.901 24.172-29.307 24.03ZM-28.9 7.961-25.692 8.149-25.52 5.208-28.727 5.02ZM-28.101-10.233-24.358-10.013-24.139-13.755-27.881-13.975ZM-27.285-28.692-22.74-28.425-22.489-32.703-27.034-32.97ZM-26.753-46.901-21.406-46.587-21.108-51.667-26.455-51.981ZM-25.938-65.362-20.057-65.017-19.727-70.63-25.608-70.975ZM-25.138-83.555-18.722-83.179-18.346-89.594-24.761-89.97ZM-24.322-102.015-17.106-101.591-16.698-108.542-23.914-108.965ZM-23.79-120.224-20.85-120.051-23.555-124.234ZM-39.353 35.244-36.947 35.385-36.806 32.978-39.212 32.837ZM-38.805 16.767-35.597 16.955-35.424 14.015-38.632 13.826ZM-38.005-1.426-34.263-1.206-34.044-4.949-37.786-5.168ZM-37.191-19.886-32.646-19.619-32.379-24.163-36.924-24.43ZM-36.391-38.079-31.312-37.781-30.998-43.128-36.077-43.426ZM-35.843-56.555-29.962-56.21-29.616-62.091-35.498-62.437ZM-35.043-74.749-28.627-74.372-28.235-81.055-34.651-81.431ZM-34.227-93.208-27.01-92.784-26.587-100.003-33.804-100.426ZM-33.428-111.401-25.676-110.946-25.205-118.966-32.957-119.421ZM-32.88-129.878-27.266-129.548-32.504-136.293ZM-45.49 7.255-44.152 7.334-43.933 3.592-46.072 3.466ZM-47.096-11.079-42.551-10.812-42.284-15.356-46.829-15.623ZM-46.296-29.272-41.217-28.974-40.903-34.32-45.982-34.618ZM-45.48-47.733-39.867-47.404-39.521-53.283-45.135-53.613ZM-44.949-65.941-38.266-65.548-37.873-72.231-44.556-72.624ZM-44.133-84.401-36.915-83.978-36.492-91.195-43.709-91.618ZM-43.333-102.595-35.581-102.14-35.11-110.158-42.862-110.613ZM-42.785-121.07-34.231-120.568-33.729-129.123-42.283-129.625ZM-41.985-139.263-34.501-138.824-41.546-146.749ZM-51.122-20.167-50.808-25.513-52.679-25.623ZM-55.386-38.925-49.771-38.596-49.426-44.477-55.041-44.806ZM-54.853-57.134-48.171-56.742-47.778-63.425-54.461-63.817ZM-54.038-75.595-46.82-75.171-46.397-82.388-53.614-82.812ZM-53.238-93.788-45.486-93.333-45.016-101.352-52.767-101.807ZM-52.691-112.263-43.869-111.746-43.367-120.3-52.189-120.817ZM-64.413-54.209C-63.187-52.259-62.227-50.325-61.535-48.407L-58.06-48.203-57.683-54.618-64.366-55.01ZM-63.943-66.788-56.725-66.365-56.302-73.582-63.52-74.005ZM-63.128-85.248-55.376-84.793-54.921-92.545-62.673-93ZM-62.328-103.441-53.774-102.939-53.272-111.493-61.826-111.995ZM-66.568-58.626-66.207-64.775-69.949-64.995ZM-60.447-149.199-60.949-140.645-69.236-141.131-68.734-149.685ZM-73.033-76.441-65.281-75.986-64.826-83.738-72.578-84.194ZM-72.233-94.634-63.679-94.132-63.177-102.686-71.731-103.188ZM-74.605-72.51-74.463-74.916-76.334-75.026ZM-69.552-158.585-70.007-150.833-77.76-151.288-77.305-159.04ZM-70.352-140.392-70.854-131.838-79.141-132.325-78.639-140.879ZM-82.138-85.828-73.584-85.326-73.082-93.88-81.636-94.382ZM-78.643-168.238-79.066-161.021-86.017-161.43-85.593-168.646ZM-79.458-149.779-79.913-142.027-87.665-142.482-87.21-150.234ZM-80.258-131.586-80.76-123.032-89.046-123.518-88.544-132.072ZM-87.748-177.625-88.109-171.476-94.524-171.852-94.163-178.001ZM-88.547-159.432-88.955-152.481-95.906-152.889-95.498-159.84ZM-89.363-140.971-89.802-133.486-97.555-133.941-97.115-141.426ZM-90.163-122.779-90.649-114.491-98.936-114.978-98.449-123.266ZM-96.838-187.278-97.168-181.664-103.049-182.01-102.719-187.623ZM-97.637-169.086-98.014-162.669-104.43-163.046-104.053-169.463ZM-98.453-150.625-98.861-143.674-105.811-144.082-105.403-151.033ZM-99.253-132.432-99.708-124.68-107.46-125.134-107.005-132.887ZM-106.743-178.471-107.073-172.858-112.954-173.203-112.624-178.816ZM-107.542-160.278-107.919-153.863-114.335-154.239-113.958-160.654ZM-108.358-141.819-108.766-134.868-115.716-135.276-115.308-142.226ZM-115.833-188.126-116.131-183.046-121.21-183.344-120.912-188.424ZM-116.648-169.665-116.977-164.051-122.591-164.381-122.261-169.994ZM-117.448-151.471-117.824-145.056-124.24-145.433-123.864-151.848ZM-118.263-133.012-118.671-126.061-125.621-126.469-125.213-133.42ZM-125.206-197.526-125.457-193.25-129.734-193.501-129.483-197.777ZM-125.738-179.319-126.036-174.24-131.116-174.538-130.817-179.617ZM-126.553-160.858-126.882-155.245-132.497-155.574-132.167-161.188ZM-127.353-142.665-127.729-136.25-134.145-136.626-133.769-143.041ZM-134.844-188.704-135.095-184.428-139.639-184.695-139.388-188.971ZM-135.643-170.511-135.941-165.433-141.02-165.731-140.722-170.809ZM-136.458-152.051-136.788-146.438-142.401-146.767-142.072-152.381ZM-144.201-198.374-144.42-194.632-147.896-194.836-147.676-198.578ZM-144.733-180.165-145-175.621-149.544-175.888-149.277-180.432ZM-145.548-161.704-145.846-156.626-150.925-156.924-150.627-162.002ZM-154.106-189.568-154.31-186.091-157.785-186.296-157.581-189.771ZM-154.638-171.358-154.889-167.081-159.167-167.332-158.916-171.61ZM-155.453-152.898-155.736-148.086-160.815-148.384-160.532-153.196ZM-163.196-199.22-163.368-196.28-166.309-196.452-166.136-199.393ZM-163.744-180.744-163.948-177.269-167.69-177.489-167.486-180.963ZM-164.544-162.55-164.795-158.274-169.072-158.525-168.821-162.802ZM-172.301-208.607-172.427-206.468-174.565-206.594-174.44-208.732ZM-173.101-190.414-173.274-187.473-176.214-187.646-176.041-190.586ZM-173.648-171.937-173.852-168.463-177.595-168.682-177.391-172.157ZM-182.191-200.067-182.332-197.661-184.47-197.787-184.329-200.192ZM-199.542 104.702-199.699 107.375-202.372 107.218-202.215 104.545ZM-182.738-181.591-182.911-178.651-186.119-178.839-185.947-181.78ZM-183.538-163.398-183.758-159.656-187.5-159.876-187.281-163.618ZM-192.096-191.26-192.237-188.855-194.375-188.98-194.234-191.385ZM-192.643-172.785-192.816-169.844-195.756-170.017-195.584-172.957ZM-209.447 113.509-209.604 116.182-212.545 116.009-212.388 113.336ZM-201.733-182.438-201.875-180.031-204.281-180.172-204.139-182.579ZM-202.549-163.977-202.722-161.036-205.661-161.209-205.489-164.149ZM-219.62 122.3-219.777 124.974-222.45 124.817-222.293 122.143ZM-217.673 102.833-217.924 107.11-221.934 106.874-221.683 102.598ZM-211.638-173.631-211.78-171.224-214.186-171.366-214.045-173.772ZM-229.525 131.108-229.697 134.047-232.371 133.89-232.198 130.951ZM-227.578 111.64-227.829 115.918-232.107 115.667-231.855 111.389ZM-221.544-164.824-221.685-162.418-224.091-162.559-223.95-164.966ZM-239.446 140.18-239.603 142.855-242.276 142.698-242.12 140.024ZM-237.498 120.714-237.734 124.724-242.011 124.473-241.776 120.463ZM-235.819 101.232-236.133 106.578-241.479 106.264-241.165 100.919ZM-247.671 129.505-247.906 133.515-251.916 133.28-251.681 129.27ZM-245.724 110.039-246.038 115.385-251.651 115.055-251.337 109.71ZM-244.044 90.556-244.436 97.239-251.119 96.846-250.727 90.164ZM-257.576 138.312-257.827 142.59-261.837 142.354-261.586 138.077ZM-255.629 118.846-255.958 124.459-261.572 124.13-261.242 118.516ZM-253.949 99.362-254.357 106.313-261.04 105.921-260.632 98.97ZM-265.801 127.637-266.131 133.25-271.477 132.936-271.148 127.323ZM-263.87 108.437-264.262 115.12-271.212 114.712-270.82 108.029ZM-262.19 88.955-262.661 96.973-270.68 96.503-270.209 88.484ZM-274.042 117.228-274.435 123.911-281.118 123.518-280.726 116.835ZM-272.095 97.762-272.566 105.782-280.585 105.311-280.114 97.291ZM-283.948 126.036-284.34 132.719-291.023 132.326-290.63 125.643ZM-287.477 67.353-279.725 67.808-279.27 60.055-287.022 59.601ZM-282 106.568-282.471 114.588-290.49 114.117-290.019 106.097ZM-294.038 37.462-290.028 37.697-292.104 31.943-293.709 31.849ZM-295.702 56.678-289.02 57.07-288.627 50.387-295.31 49.995ZM-297.383 76.159-289.63 76.615-289.175 68.862-296.928 68.407ZM-292.173 115.359-292.644 123.379-300.662 122.908-300.192 114.888ZM-300.599 7.571-298.193 7.713-298.523 4.205-300.395 4.095ZM-302.279 27.053-297.734 27.32-297.468 22.776-302.012 22.509ZM-303.943 46.269-298.33 46.598-298 40.985-303.614 40.655ZM-305.623 65.75-298.94 66.143-298.548 59.46-305.231 59.068ZM-307.288 84.966-299.535 85.421-299.08 77.669-306.832 77.214ZM-309.107-2.853-306.434-2.697-306.277-5.369-308.95-5.526ZM-310.787 16.63-307.045 16.85-306.825 13.107-310.567 12.888ZM-312.184 35.86-307.906 36.111-307.64 31.567-311.917 31.316ZM-313.848 55.075-308.502 55.389-308.188 50.043-313.534 49.73ZM-315.529 74.559-309.113 74.935-308.721 68.252-315.137 67.876ZM-317.46 93.757-309.44 94.228-308.985 86.477-317.005 86.006ZM-279.236 77.76-270.415 78.278-270.964 87.635-280.053 87.102-279.535 78.28-288.624 77.747-289.141 86.569-280.32 87.086-280.869 96.442-290.225 95.893-289.707 87.071-298.529 86.553-299.062 95.641-290.241 96.159-290.774 105.249-300.131 104.7-299.613 95.878-308.434 95.36-308.968 104.449-300.147 104.967-300.696 114.323-310.051 113.774-309.534 104.952-318.622 104.419-319.36 112.423-318.606 113.272-310.318 113.758-310.726 120.709-306.638 124.167-302.094 124.433-302.266 127.374C-295.819 131.776-288.805 135.674-281.21 138.802L-281.068 136.397-275.722 136.711-275.957 140.721C-266.758 143.943-256.946 145.859-246.521 146.471-202.948 149.029-164.585 126.067-144.793 90.48-159.604 100.609-175.972 105.281-196.021 104.104-207.515 103.43-219.686 100.569-227.03 97.724L-231.841 97.442-231.747 95.837C-238.305 93.307-246.875 88.512-252.535 84.424L-252.739 87.899-260.759 87.428-260.289 79.41-258.952 79.488-260.744 78.041-260.791 78.843-270.148 78.294-269.63 69.474-278.719 68.94ZM-319.028 6.221-316.354 6.378-316.198 3.705-318.871 3.548ZM-320.692 25.437-317.217 25.641-316.998 21.898-320.472 21.694ZM-322.357 44.652-317.812 44.919-317.545 40.373-322.09 40.107ZM-324.021 63.866-318.407 64.196-318.093 58.85-323.707 58.521ZM-325.701 83.349-319.018 83.742-318.626 77.059-325.308 76.667ZM-327.381 102.831-319.628 103.286-319.173 95.534-326.926 95.079ZM-328.933 15.027-326.527 15.169-326.37 12.496-328.776 12.355ZM-330.597 34.243-327.122 34.447-326.918 30.973-330.393 30.769ZM-332.262 53.459-327.717 53.725-327.45 49.18-331.995 48.913ZM-333.941 72.941-328.328 73.27-327.998 67.657-333.612 67.327ZM-335.496 90.285-334.269 92.235-328.923 92.548-328.531 85.866-335.214 85.473ZM-339.57 81.998-338.233 82.077-337.903 76.463-341.913 76.228ZM-339.106 23.819-336.432 23.975-336.275 21.303-338.949 21.146ZM-340.502 43.05-337.027 43.254-336.823 39.779-340.298 39.575ZM-342.182 62.533-337.638 62.8-337.372 58.254-341.916 57.988ZM-348.301 52.517-348.285 52.25-346.948 52.328-346.728 48.586-348.867 48.46ZM-349.011 32.626-346.338 32.784-346.181 30.109-348.854 29.952ZM-328.608-150.453-365.697-117.223C-330.998-146.303-282.916-165.743-228.384-162.542-211.276-161.538-194.576-158.145-178.772-153.193L-178.725-153.995-174.448-153.744-174.558-151.873C-166.932-149.28-159.368-145.617-152.056-142.237L-151.962-143.84-146.348-143.511-146.599-139.235C-139.035-135.571-125.087-126.438-116.893-119.787L-116.642-124.065-108.89-123.61-109.345-115.857-112.553-116.046C-111.012-114.882-109.738-113.734-108.479-112.32L-108.354-114.457-99.8-113.955-100.286-105.669-101.356-105.732-99.831-104.302-99.8-104.836-90.711-104.302-91.229-95.481-82.14-94.947-81.606-104.037-90.428-104.555-89.895-113.642-80.805-113.109-81.323-104.287-72.235-103.754-71.701-112.843-80.522-113.361-79.989-122.449-70.9-121.916-71.418-113.095-62.329-112.562-61.796-121.65-70.885-122.183-70.351-131.273-61.262-130.739-61.78-121.918-52.424-121.369-51.891-130.456-60.98-130.99-60.446-140.079-51.357-139.546-51.891-130.456-42.534-129.907-41.985-139.263-51.075-139.797-50.541-148.886-43.056-148.447-50.652-156.134-51.044-149.451-59.331-149.938-58.829-158.492-52.681-158.131-59.82-164.451-60.103-159.64-67.855-160.095-67.4-167.847-63.925-167.643-69.051-171.699-69.161-169.828-76.378-170.252-76.017-176.4C-77.811-177.846-79.886-179.041-81.946-180.504L-84.619-180.661-84.541-181.996C-91.79-186.446-99.086-190.093-106.399-193.472L-106.493-191.868-111.305-192.151-111.101-195.627C-124.735-200.987-139.232-205.324-153.307-207.759L-153.463-205.086-156.403-205.259-156.231-208.2C-163.418-209.159-168.48-209.723-174.896-210.1-237.982-213.802-279.618-194.519-328.608-150.453" fill="#f7941d"/>
<path transform="matrix(1,0,0,-1,1917.9675,495.7256)" d="M0 0C-3.682 63.624-54.679 110.56-116.164 107.002-177.649 103.444-222.89 50.938-219.208-12.686-215.526-76.309-164.499-123.783-103.014-120.225-41.529-116.666 3.682-63.624 0 0M-305.287-17.668C-311.537 90.331-228.898 182.554-120.898 188.804-12.898 195.055 79.828 112.982 86.078 4.982 92.359-103.553 9.72-195.776-98.28-202.027-206.28-208.276-299.007-126.203-305.287-17.668" fill="#f05787"/>
</g>
</svg>