<?xml version='1.0' encoding='UTF-8'?>
<svg xmlns="http://www.w3.org/2000/svg" xmlns:xlink="http://www.w3.org/1999/xlink" xmlns:inkscape="http://www.inkscape.org/namespaces/inkscape" version="1.1" width="421.304" height="461.857" viewBox="4562.936 293.515 421.304 461.857">
<defs>
<clipPath id="clip_1">
<path transform="matrix(1,0,0,-1,0,992.126)" d="M1.379 0H5244.0949V992.005H1.379Z"/>
</clipPath>
<clipPath id="clip_2">
<path transform="matrix(1,0,0,-1,0,992.126)" d="M0 992.126H5244.095V0H0Z"/>
</clipPath>
</defs>
<g clip-path="url(#clip_2)">
<path transform="matrix(1,0,0,-1,4825.7097,595.30947)" d="M0 0-50.11 48.568 11.498 49.53 12.278-.331ZM-154.107 86.631C-155.156 153.722-105.217 199.675-30.034 200.85 2.336 201.356 42.668 193.63 70.078 177.347L68.656 255.9 121.417 204.762 119.52 131.648C92.069 150.541 49.754 157.968 17.382 157.462-57.8 156.287-107.738 110.334-106.689 43.243-106.379 23.404-102.435 4.927-90.695-11.079-129.869 6.064-153.401 41.468-154.107 86.631M-133.765-95.571-177.51-53.17C-143.614-83.452-96.054-102.552-39.929-101.675 6.538-100.949 64.28-86.469 94.275-67.723L91.321 121.279 146.694 70.183 149.648-118.819C119.105-136.007 60.042-149.464 12.792-150.202-49.86-151.181-97.707-130.518-133.765-95.571" fill="#ffffff"/>
<path transform="matrix(1,0,0,-1,4811.1706,582.99746)" d="M0 0-50.11 48.568 11.498 49.53 12.278-.331ZM-154.107 86.631C-155.156 153.721-105.217 199.674-30.034 200.85 2.336 201.355 42.668 193.63 70.078 177.347L68.78 260.361 121.542 209.224 122.839 126.21C95.389 145.103 49.754 157.968 17.382 157.462-57.8 156.286-107.737 110.334-106.689 43.243-106.379 23.404-102.435 4.927-90.695-11.079-129.869 6.064-153.401 41.468-154.107 86.631M-133.765-95.571-177.51-53.17C-143.614-83.452-96.054-102.553-39.929-101.675 6.538-100.949 64.28-86.469 94.275-67.723L91.321 121.279 146.694 70.183 149.648-118.819C119.105-136.008 60.042-149.464 12.792-150.202-49.86-151.181-97.707-130.518-133.765-95.571" fill="#5abecb"/>
<path transform="matrix(1,0,0,-1,4573.5886,496.56178)" d="M0 0C-1.771 113.296 84.213 191.929 195.421 193.667 227.268 194.165 273.312 188.618 307.484 174.007L308.782 90.994C281.373 107.277 241.04 115.002 208.669 114.496 133.487 113.321 83.548 67.368 84.597 .278 85.617-64.986 134.361-109.658 208.5-108.499 222.596-108.278 237.45-106.48 251.226-102.347L250.202-36.823 188.594-37.786 187.492 32.698 330.025 34.926 332.979-154.076C302.983-172.822 245.242-187.302 198.774-188.029 85.48-189.799 1.73-110.686 0 0" fill="#9b678d"/>
<path transform="matrix(1,0,0,-1,4955.265,618.86819)" d="M0 0 2.61 .041 2.651-2.569 .041-2.61ZM-.821 19.048 2.833 19.105 2.891 15.451-.764 15.393ZM-1.645 38.357 3.055 38.431 3.128 33.733-1.571 33.66ZM-2.465 57.406 3.278 57.496 3.368 51.753-2.375 51.663ZM-3.023 76.458 3.503 76.561 3.609 69.774-2.917 69.672ZM-3.844 95.508 3.727 95.626 3.845 88.055-3.726 87.937ZM-4.659 114.296 4.086 106.077-4.528 105.942ZM-9.284 9.255-6.673 9.296-6.632 6.684-9.243 6.644ZM-10.104 28.303-6.45 28.36-6.393 24.706-10.047 24.649ZM-10.924 47.352-6.225 47.426-6.151 42.727-10.85 42.653ZM-11.749 66.662-6.005 66.751-5.916 61.008-11.659 60.918ZM-12.568 85.71-5.78 85.816-5.674 79.029-12.462 78.923ZM-2.606-83.859-2.729-76.027-10.561-76.149-10.438-83.981ZM-13.389 104.759-5.557 104.881-5.434 97.049-13.266 96.927ZM-14.196 123.024-5.981 115.318-14.073 115.192ZM-18.824 18.245-16.214 18.286-16.173 15.675-18.784 15.635ZM-19.649 37.554-15.995 37.611-15.938 33.957-19.592 33.9ZM-20.469 56.602-15.77 56.676-15.696 51.978-20.395 51.905ZM-21.29 75.651-15.546 75.741-15.457 69.998-21.2 69.908ZM-22.109 94.699-15.321 94.805-15.219 88.279-22.007 88.173ZM-11.882-75.127-12.004-67.294-19.836-67.417-19.714-75.249ZM-22.932 114.01-15.102 114.132-14.979 106.3-22.81 106.178ZM-23.732 131.752-15.782 124.305-23.614 124.183ZM-28.369 27.496-25.498 27.541-25.457 24.929-28.329 24.884ZM-29.19 46.544-25.274 46.605-25.217 42.951-29.133 42.889ZM-29.752 65.857-25.314 65.927-25.241 61.228-29.679 61.158ZM-30.573 84.907-25.091 84.992-25.001 79.249-30.483 79.163ZM-21.145-83.887-21.255-76.839-28.303-76.949-28.193-83.997ZM-20.901-66.127-21.023-58.297-28.854-58.419-28.732-66.25ZM-31.392 103.955-24.866 104.056-24.76 97.27-31.286 97.168ZM-32.213 123.004-24.642 123.122-24.524 115.551-32.095 115.433ZM-33.003 140.224-25.588 133.552-32.897 133.438ZM-37.653 36.751-35.042 36.792-35.002 34.18-37.612 34.14ZM-38.474 55.799-34.819 55.856-34.762 52.202-38.417 52.144ZM-39.293 74.847-34.594 74.921-34.521 70.223-39.219 70.149ZM-30.409-92.649-30.506-86.384-36.771-86.482-36.931-93.013ZM-30.159-75.151-30.273-67.841-37.584-67.956-37.47-75.265ZM-40.114 93.896-34.37 93.986-34.285 88.504-40.028 88.414ZM-30.176-57.395-30.299-49.563-38.129-49.685-38.007-57.517ZM-40.937 113.206-34.149 113.312-34.043 106.524-40.831 106.418ZM-41.756 132.255-33.926 132.377-33.803 124.545-41.634 124.423ZM-42.541 148.954-35.655 142.794-42.442 142.688ZM-47.194 45.741-44.583 45.782-44.542 43.171-47.153 43.131ZM-48.019 65.05-44.364 65.107-44.307 61.453-47.961 61.395ZM-39.422-83.911-39.524-77.386-46.051-77.488-45.949-84.013ZM-39.439-66.157-39.55-59.108-46.598-59.218-46.487-66.267ZM-48.838 84.098-44.139 84.172-44.065 79.473-48.764 79.399ZM-39.194-48.397-39.316-40.565-47.149-40.687-47.026-48.52ZM-49.657 103.147-43.915 103.237-43.825 97.494-49.567 97.404ZM-50.478 122.195-43.69 122.301-43.588 115.775-50.376 115.669ZM-51.037 141.249-43.466 141.367-43.348 133.796-50.919 133.678ZM-51.286 157.173-45.457 151.781-51.201 151.691ZM-48.686-92.673-48.775-86.93-54.519-87.02-54.429-92.763ZM-48.703-74.917-48.801-68.653-55.066-68.751-55.224-75.281ZM-48.454-57.419-48.568-50.11-55.877-50.224-55.763-57.533ZM-57.945-101.697-58.026-96.475-63.247-96.556-63.166-101.778ZM-57.961-83.941-58.051-78.198-63.794-78.287-63.704-84.031ZM-57.717-66.181-57.819-59.655-64.345-59.757-64.243-66.283ZM-57.733-48.426-57.843-41.378-64.892-41.488-64.782-48.536ZM-67.224-92.703-67.302-87.743-72.262-87.82-72.185-92.78ZM-66.98-74.943-67.07-69.2-72.813-69.29-72.724-75.033ZM-66.996-57.187-67.094-50.921-73.359-51.019-73.519-57.549ZM-76.483-101.725-76.553-97.287-80.99-97.357-80.921-101.794ZM-76.24-83.965-76.321-78.745-81.542-78.826-81.46-84.047ZM-76.255-66.209-76.345-60.466-82.089-60.556-81.999-66.299ZM-85.751-110.225-85.808-106.571-89.463-106.628-89.406-110.283ZM-85.503-92.727-85.572-88.29-90.01-88.359-89.94-92.797ZM-85.519-74.971-85.597-70.011-90.555-70.088-90.478-75.049ZM-85.273-57.212-85.363-51.468-91.106-51.558-91.017-57.301ZM-94.765-101.488-94.822-97.833-98.478-97.89-98.421-101.545ZM-94.778-83.993-94.848-79.556-99.285-79.625-99.216-84.063ZM-94.533-66.234-94.614-61.013-99.836-61.095-99.754-66.315ZM-104.024-110.511-104.073-107.378-107.206-107.427-107.157-110.56ZM-104.042-92.755-104.099-89.101-107.753-89.158-107.696-92.812ZM-103.796-74.995-103.865-70.558-108.303-70.627-108.233-75.065ZM-113.303-101.517-113.348-98.646-116.22-98.69-116.175-101.562ZM-113.06-83.758-113.117-80.103-116.771-80.16-116.714-83.815ZM-113.071-66.263-113.141-61.826-117.58-61.895-117.51-66.333ZM-122.567-110.279-122.599-108.19-124.688-108.223-124.656-110.312ZM-122.319-92.779-122.368-89.648-125.501-89.697-125.452-92.828ZM-122.334-75.024-122.392-71.369-126.046-71.426-125.989-75.081ZM-133.133 198.193-133.17 200.544-135.52 200.507-135.483 198.157ZM-131.582-101.541-131.619-99.193-133.968-99.229-133.931-101.578ZM-131.598-83.786-131.643-80.914-134.515-80.959-134.47-83.831ZM-131.354-66.026-131.411-62.371-135.066-62.428-135.009-66.083ZM-142.678 207.445-142.715 209.793-145.063 209.757-145.027 207.408ZM-140.861-92.548-140.894-90.459-142.983-90.492-142.95-92.58ZM-140.612-75.049-140.661-71.916-143.794-71.965-143.745-75.098ZM-152.219 216.434-152.26 219.045-154.608 219.008-154.568 216.398ZM-151.138 197.391-151.195 201.045-154.85 200.988-154.792 197.333ZM-149.875-83.81-149.912-81.461-152.262-81.498-152.226-83.847ZM-161.502 225.69-161.539 228.038-163.889 228.001-163.853 225.653ZM-160.683 206.64-160.736 210.035-164.129 209.982-164.076 206.587ZM-159.156-74.816-159.188-72.729-161.276-72.762-161.239-75.11ZM-169.962 215.635-170.02 219.29-173.674 219.233-173.617 215.578ZM-169.142 196.586-169.215 201.285-173.914 201.212-173.84 196.513ZM-179.507 224.886-179.564 228.541-183.219 228.484-183.162 224.829ZM-178.682 205.576-178.756 210.275-183.455 210.201-183.381 205.502ZM-177.863 186.528-177.953 192.271-183.696 192.181-183.606 186.438ZM-188.227 214.827-188.301 219.526-193 219.452-192.926 214.753ZM-187.143 195.522-187.236 201.526-193.24 201.433-193.146 195.428ZM-142.607 35.894-192.717 84.461-131.109 85.424-130.33 35.563ZM-197.511 224.082-197.584 228.781-202.283 228.708-202.21 224.009ZM-196.687 204.773-196.781 210.776-202.785 210.682-202.69 204.679ZM-195.866 185.724-195.977 192.773-203.026 192.662-202.916 185.613ZM-206.232 214.024-206.322 219.767-212.064 219.677-211.974 213.934ZM-205.147 194.719-205.257 201.766-212.305 201.656-212.195 194.608ZM-204.327 175.669-204.453 183.761-212.545 183.635-212.419 175.543ZM-214.691 203.968-214.801 211.018-221.85 210.907-221.74 203.858ZM-221.662 165.476-213.308 165.607-213.275 163.518-220.223 156.882-221.527 156.861ZM-213.872 184.92-213.998 193.013-222.09 192.886-221.964 184.794ZM-230.383 155.417-222.551 155.539-222.531 154.235-227.915 147.884-230.265 147.848ZM-224.231 212.959-224.346 220.269-231.395 220.158-231.281 212.849ZM-231.203 174.466-222.328 174.605-222.188 165.73-231.064 165.591ZM-223.151 193.914-223.281 202.268-231.635 202.137-231.504 193.784ZM-239.107 145.62-232.319 145.726-232.254 141.549-234.037 138.648-238.997 138.571ZM-239.667 164.672-232.096 164.79-231.978 157.221-239.548 157.103ZM-232.696 203.165-232.822 211.257-240.915 211.131-240.788 203.039ZM-240.743 183.456-232.128 183.591-231.994 174.975-240.608 174.841ZM-246.747 116.517-244.136 116.557-245.369 111.838-246.673 111.818ZM-247.567 135.566-242.085 135.651-242 130.17-247.481 130.084ZM-248.387 154.614-241.86 154.716-241.758 148.19-248.285 148.087ZM-249.211 173.923-241.641 174.041-241.519 166.211-249.089 166.092ZM-250.288 192.707-241.673 192.842-241.535 183.966-250.149 183.832ZM-213.048 165.611-213.195 175.009-222.332 174.866-222.474 184.003-231.872 183.856-232.019 193.254-241.416 193.107-241.562 202.505-250.701 202.362-250.843 211.499-254.758 211.438C-253.208 212.506-251.919 213.571-250.108 214.643L-250.067 212.032-242.236 212.155-242.351 219.464-237.171 222.156-233.515 222.213-233.54 223.781C-229.653 225.669-225.762 227.296-221.605 228.667L-221.515 222.924-215.773 223.013-215.867 229.017-220.826 228.939C-212.251 231.686-202.626 233.924-192.466 235.389L-192.445 234.083-189.052 234.136-189.077 235.703C-184.125 236.302-178.646 236.65-173.425 236.731L-173.396 234.904-171.047 234.941-171.076 236.768C-138.963 237.008-99.939 229.524-72.529 213.241L-19.769 162.104C-46.432 180.748-93.115 193.857-125.225 193.355-137.233 193.168-149.221 191.676-159.629 189.424L-159.67 192.034-164.892 191.952-164.831 188.036C-172.633 186.087-179.123 183.636-186.384 180.388L-186.433 183.521-193.481 183.411-193.379 176.885-197.262 174.735-203.266 174.641-203.208 170.987C-205.535 169.384-208.116 167.516-210.437 165.652ZM-254.647 87.409-252.037 87.45-251.996 84.84-254.606 84.799ZM-255.468 106.458-251.813 106.516-251.76 103.121-255.415 103.064ZM-256.292 125.768-251.592 125.841-251.519 121.142-256.218 121.069ZM-257.112 144.816-251.369 144.905-251.279 139.163-257.022 139.074ZM-257.932 163.865-251.144 163.971-251.042 157.445-257.83 157.339ZM-258.752 182.913-250.92 183.035-250.802 175.466-258.634 175.344ZM-259.572 201.962-250.697 202.101-250.558 193.224-259.433 193.086ZM-260.175 207.174-260.105 202.737-265.066 202.659ZM-264.192 96.66-261.582 96.701-261.541 94.091-264.151 94.05ZM-264.751 115.714-261.358 115.767-261.301 112.112-264.694 112.059ZM-265.571 134.761-261.133 134.831-261.064 130.393-265.501 130.324ZM-266.392 153.811-260.91 153.896-260.824 148.414-266.306 148.329ZM-267.215 173.12-260.688 173.222-260.583 166.434-267.109 166.332ZM-268.036 192.168-260.465 192.286-260.347 184.716-267.917 184.597ZM-269.949 197.621-269.888 193.707-273.281 193.654ZM-273.476 105.915-270.865 105.956-270.82 103.084-273.431 103.044ZM-274.296 124.965-270.642 125.022-270.584 121.366-274.239 121.309ZM-275.116 144.013-270.417 144.086-270.343 139.387-275.042 139.314ZM-275.937 163.062-270.455 163.148-270.369 157.664-275.851 157.578ZM-276.756 182.11-270.229 182.212-270.127 175.685-276.654 175.583ZM-283.016 114.905-280.406 114.946-280.365 112.336-282.976 112.295ZM-283.837 133.954-280.183 134.011-280.129 130.617-283.784 130.56ZM-284.656 153.002-279.958 153.076-279.888 148.638-284.587 148.565ZM-285.22 172.316-279.738 172.401-279.648 166.659-285.13 166.574ZM-290.547 162.31-289.502 162.327-289.433 157.889-292.043 157.849C-291.804 159.157-291.305 160.732-290.547 162.31M-292.562 124.156-289.689 124.201-289.649 121.591-292.521 121.546ZM-293.121 143.21-289.728 143.263-289.67 139.608-293.063 139.555ZM-276.372-59.677-320.118-17.276C-286.222-47.558-238.662-66.659-182.537-65.781-178.62-65.72-174.704-65.659-170.531-65.334L-170.519-66.117-168.17-66.08-168.186-65.035C-163.23-64.696-158.013-64.355-152.801-63.75L-152.764-66.101-149.893-66.056-149.937-63.184C-136.123-61.662-122.587-58.84-108.801-55.49L-108.772-57.317-103.812-57.24-103.861-54.108C-100.219-53.268-86.188-48.87-82.554-47.507L-82.538-48.552-76.012-48.45-76.061-45.318C-69.313-42.602-62.832-39.628-56.354-36.393L-56.302-39.786-48.47-39.663-48.592-31.833-48.332-31.829 7.041-82.925 3.157-85.075-1.542-85.148-1.509-87.236C-4.877-88.856-8.252-90.213-11.882-91.838L-11.98-85.572-19.289-85.686-19.175-92.995-14.737-92.926-21.231-95.116-27.757-95.218-27.725-97.307C-31.621-98.673-35.519-99.778-39.68-100.888L-39.757-95.929-45.501-96.019-45.411-101.761-42.54-101.716-45.399-102.545C-52.684-104.225-59.968-105.905-67.257-107.325L-67.278-106.02-71.715-106.089-71.683-108.178C-89.389-111.327-109.714-113.994-129.815-114.308-192.468-115.287-240.314-94.624-276.372-59.677" fill="#c1dea1"/>
</g>
</svg>